<mxfile host="app.diagrams.net" modified="2022-09-16T17:56:49.954Z" agent="5.0 (Windows NT 10.0; Win64; x64) AppleWebKit/537.36 (KHTML, like Gecko) Chrome/105.0.0.0 Safari/537.36" etag="v2iskly8_blD7gJsVKVA" version="20.3.0" type="github">
  <diagram id="EFKoAe3cqBNjUxxPLyki" name="Страница 1">
    <mxGraphModel dx="1808" dy="548" grid="1" gridSize="10" guides="1" tooltips="1" connect="1" arrows="1" fold="1" page="1" pageScale="1" pageWidth="827" pageHeight="1169" math="0" shadow="0">
      <root>
        <mxCell id="0" />
        <mxCell id="1" parent="0" />
        <mxCell id="hH76QGNeZgddSlemnvMg-55" value="&lt;&lt;interface&gt;&gt;&#xa;ФабрикаСоставляющих" style="swimlane;fontStyle=0;childLayout=stackLayout;horizontal=1;startSize=26;fillColor=none;horizontalStack=0;resizeParent=1;resizeParentMax=0;resizeLast=0;collapsible=1;marginBottom=0;" vertex="1" parent="1">
          <mxGeometry x="50" y="60" width="210" height="104" as="geometry" />
        </mxCell>
        <mxCell id="hH76QGNeZgddSlemnvMg-56" value="+ СоздатьАбстрактный двигатель()" style="text;strokeColor=none;fillColor=none;align=left;verticalAlign=top;spacingLeft=4;spacingRight=4;overflow=hidden;rotatable=0;points=[[0,0.5],[1,0.5]];portConstraint=eastwest;" vertex="1" parent="hH76QGNeZgddSlemnvMg-55">
          <mxGeometry y="26" width="210" height="26" as="geometry" />
        </mxCell>
        <mxCell id="hH76QGNeZgddSlemnvMg-57" value="+СоздатьКолесо()" style="text;strokeColor=none;fillColor=none;align=left;verticalAlign=top;spacingLeft=4;spacingRight=4;overflow=hidden;rotatable=0;points=[[0,0.5],[1,0.5]];portConstraint=eastwest;" vertex="1" parent="hH76QGNeZgddSlemnvMg-55">
          <mxGeometry y="52" width="210" height="26" as="geometry" />
        </mxCell>
        <mxCell id="hH76QGNeZgddSlemnvMg-58" value="+ СоздатьКузов()" style="text;strokeColor=none;fillColor=none;align=left;verticalAlign=top;spacingLeft=4;spacingRight=4;overflow=hidden;rotatable=0;points=[[0,0.5],[1,0.5]];portConstraint=eastwest;" vertex="1" parent="hH76QGNeZgddSlemnvMg-55">
          <mxGeometry y="78" width="210" height="26" as="geometry" />
        </mxCell>
        <mxCell id="hH76QGNeZgddSlemnvMg-67" value="&lt;&lt;interface&gt;&gt;&#xa;ФабрикаСпринт" style="swimlane;fontStyle=0;childLayout=stackLayout;horizontal=1;startSize=26;fillColor=none;horizontalStack=0;resizeParent=1;resizeParentMax=0;resizeLast=0;collapsible=1;marginBottom=0;" vertex="1" parent="1">
          <mxGeometry x="50" y="180" width="210" height="104" as="geometry" />
        </mxCell>
        <mxCell id="hH76QGNeZgddSlemnvMg-68" value="+ СоздатьАбстрактный двигатель()" style="text;strokeColor=none;fillColor=none;align=left;verticalAlign=top;spacingLeft=4;spacingRight=4;overflow=hidden;rotatable=0;points=[[0,0.5],[1,0.5]];portConstraint=eastwest;" vertex="1" parent="hH76QGNeZgddSlemnvMg-67">
          <mxGeometry y="26" width="210" height="26" as="geometry" />
        </mxCell>
        <mxCell id="hH76QGNeZgddSlemnvMg-69" value="+СоздатьКолесо()" style="text;strokeColor=none;fillColor=none;align=left;verticalAlign=top;spacingLeft=4;spacingRight=4;overflow=hidden;rotatable=0;points=[[0,0.5],[1,0.5]];portConstraint=eastwest;" vertex="1" parent="hH76QGNeZgddSlemnvMg-67">
          <mxGeometry y="52" width="210" height="26" as="geometry" />
        </mxCell>
        <mxCell id="hH76QGNeZgddSlemnvMg-70" value="+ СоздатьКузов()" style="text;strokeColor=none;fillColor=none;align=left;verticalAlign=top;spacingLeft=4;spacingRight=4;overflow=hidden;rotatable=0;points=[[0,0.5],[1,0.5]];portConstraint=eastwest;" vertex="1" parent="hH76QGNeZgddSlemnvMg-67">
          <mxGeometry y="78" width="210" height="26" as="geometry" />
        </mxCell>
        <mxCell id="hH76QGNeZgddSlemnvMg-71" value="&lt;&lt;interface&gt;&gt;&#xa;ФабрикаВнедорож" style="swimlane;fontStyle=0;childLayout=stackLayout;horizontal=1;startSize=26;fillColor=none;horizontalStack=0;resizeParent=1;resizeParentMax=0;resizeLast=0;collapsible=1;marginBottom=0;" vertex="1" parent="1">
          <mxGeometry x="50" y="300" width="210" height="104" as="geometry" />
        </mxCell>
        <mxCell id="hH76QGNeZgddSlemnvMg-72" value="+ СоздатьАбстрактный двигатель()" style="text;strokeColor=none;fillColor=none;align=left;verticalAlign=top;spacingLeft=4;spacingRight=4;overflow=hidden;rotatable=0;points=[[0,0.5],[1,0.5]];portConstraint=eastwest;" vertex="1" parent="hH76QGNeZgddSlemnvMg-71">
          <mxGeometry y="26" width="210" height="26" as="geometry" />
        </mxCell>
        <mxCell id="hH76QGNeZgddSlemnvMg-73" value="+СоздатьКолесо()" style="text;strokeColor=none;fillColor=none;align=left;verticalAlign=top;spacingLeft=4;spacingRight=4;overflow=hidden;rotatable=0;points=[[0,0.5],[1,0.5]];portConstraint=eastwest;" vertex="1" parent="hH76QGNeZgddSlemnvMg-71">
          <mxGeometry y="52" width="210" height="26" as="geometry" />
        </mxCell>
        <mxCell id="hH76QGNeZgddSlemnvMg-74" value="+ СоздатьКузов()" style="text;strokeColor=none;fillColor=none;align=left;verticalAlign=top;spacingLeft=4;spacingRight=4;overflow=hidden;rotatable=0;points=[[0,0.5],[1,0.5]];portConstraint=eastwest;" vertex="1" parent="hH76QGNeZgddSlemnvMg-71">
          <mxGeometry y="78" width="210" height="26" as="geometry" />
        </mxCell>
        <mxCell id="hH76QGNeZgddSlemnvMg-75" value="" style="endArrow=block;dashed=1;endFill=0;endSize=12;html=1;rounded=0;exitX=0;exitY=0.5;exitDx=0;exitDy=0;" edge="1" parent="1" source="hH76QGNeZgddSlemnvMg-73">
          <mxGeometry width="160" relative="1" as="geometry">
            <mxPoint x="-80" y="120" as="sourcePoint" />
            <mxPoint x="50" y="120" as="targetPoint" />
            <Array as="points">
              <mxPoint x="-40" y="365" />
              <mxPoint x="-40" y="120" />
            </Array>
          </mxGeometry>
        </mxCell>
        <mxCell id="hH76QGNeZgddSlemnvMg-76" value="" style="endArrow=block;dashed=1;endFill=0;endSize=12;html=1;rounded=0;exitX=-0.004;exitY=0.165;exitDx=0;exitDy=0;exitPerimeter=0;" edge="1" parent="1" source="hH76QGNeZgddSlemnvMg-69">
          <mxGeometry width="160" relative="1" as="geometry">
            <mxPoint x="100" y="410" as="sourcePoint" />
            <mxPoint x="50" y="118.85714285714286" as="targetPoint" />
            <Array as="points">
              <mxPoint x="-40" y="236" />
              <mxPoint x="-40" y="120" />
            </Array>
          </mxGeometry>
        </mxCell>
        <mxCell id="hH76QGNeZgddSlemnvMg-81" value="СпринтДвигатель" style="swimlane;fontStyle=0;childLayout=stackLayout;horizontal=1;startSize=26;fillColor=none;horizontalStack=0;resizeParent=1;resizeParentMax=0;resizeLast=0;collapsible=1;marginBottom=0;" vertex="1" parent="1">
          <mxGeometry x="339" y="200" width="106" height="40" as="geometry" />
        </mxCell>
        <mxCell id="hH76QGNeZgddSlemnvMg-85" value="СпринтКолесо" style="swimlane;fontStyle=0;childLayout=stackLayout;horizontal=1;startSize=26;fillColor=none;horizontalStack=0;resizeParent=1;resizeParentMax=0;resizeLast=0;collapsible=1;marginBottom=0;" vertex="1" parent="1">
          <mxGeometry x="339" y="244" width="111" height="40" as="geometry" />
        </mxCell>
        <mxCell id="hH76QGNeZgddSlemnvMg-89" value="СпринтКузов" style="swimlane;fontStyle=0;childLayout=stackLayout;horizontal=1;startSize=26;fillColor=none;horizontalStack=0;resizeParent=1;resizeParentMax=0;resizeLast=0;collapsible=1;marginBottom=0;" vertex="1" parent="1">
          <mxGeometry x="339" y="150" width="106" height="38" as="geometry" />
        </mxCell>
        <mxCell id="hH76QGNeZgddSlemnvMg-93" value="Use" style="endArrow=open;endSize=12;dashed=1;html=1;rounded=0;entryX=0;entryY=0.25;entryDx=0;entryDy=0;exitX=1.005;exitY=0.297;exitDx=0;exitDy=0;exitPerimeter=0;" edge="1" parent="1" source="hH76QGNeZgddSlemnvMg-69" target="hH76QGNeZgddSlemnvMg-89">
          <mxGeometry width="160" relative="1" as="geometry">
            <mxPoint x="100" y="240" as="sourcePoint" />
            <mxPoint x="260" y="240" as="targetPoint" />
            <Array as="points">
              <mxPoint x="300" y="240" />
              <mxPoint x="300" y="160" />
            </Array>
          </mxGeometry>
        </mxCell>
        <mxCell id="hH76QGNeZgddSlemnvMg-94" value="Use" style="endArrow=open;endSize=12;dashed=1;html=1;rounded=0;entryX=0;entryY=0.5;entryDx=0;entryDy=0;exitX=0.997;exitY=0.297;exitDx=0;exitDy=0;exitPerimeter=0;" edge="1" parent="1" source="hH76QGNeZgddSlemnvMg-69" target="hH76QGNeZgddSlemnvMg-81">
          <mxGeometry width="160" relative="1" as="geometry">
            <mxPoint x="100" y="240" as="sourcePoint" />
            <mxPoint x="260" y="240" as="targetPoint" />
            <Array as="points">
              <mxPoint x="300" y="240" />
              <mxPoint x="300" y="220" />
            </Array>
          </mxGeometry>
        </mxCell>
        <mxCell id="hH76QGNeZgddSlemnvMg-95" value="Use" style="endArrow=open;endSize=12;dashed=1;html=1;rounded=0;entryX=0;entryY=0.5;entryDx=0;entryDy=0;exitX=1.005;exitY=0.319;exitDx=0;exitDy=0;exitPerimeter=0;" edge="1" parent="1" source="hH76QGNeZgddSlemnvMg-69" target="hH76QGNeZgddSlemnvMg-85">
          <mxGeometry width="160" relative="1" as="geometry">
            <mxPoint x="100" y="240" as="sourcePoint" />
            <mxPoint x="260" y="240" as="targetPoint" />
            <Array as="points">
              <mxPoint x="300" y="240" />
              <mxPoint x="300" y="264" />
            </Array>
          </mxGeometry>
        </mxCell>
        <mxCell id="hH76QGNeZgddSlemnvMg-96" value="АбстрактныйДвигатель" style="swimlane;fontStyle=0;childLayout=stackLayout;horizontal=1;startSize=26;fillColor=none;horizontalStack=0;resizeParent=1;resizeParentMax=0;resizeLast=0;collapsible=1;marginBottom=0;" vertex="1" parent="1">
          <mxGeometry x="570" y="28" width="140" height="52" as="geometry" />
        </mxCell>
        <mxCell id="hH76QGNeZgddSlemnvMg-104" value="СпринтКузов" style="swimlane;fontStyle=0;childLayout=stackLayout;horizontal=1;startSize=26;fillColor=none;horizontalStack=0;resizeParent=1;resizeParentMax=0;resizeLast=0;collapsible=1;marginBottom=0;" vertex="1" parent="1">
          <mxGeometry x="339" y="300" width="106" height="38" as="geometry" />
        </mxCell>
        <mxCell id="hH76QGNeZgddSlemnvMg-105" value="СпринтКузов" style="swimlane;fontStyle=0;childLayout=stackLayout;horizontal=1;startSize=26;fillColor=none;horizontalStack=0;resizeParent=1;resizeParentMax=0;resizeLast=0;collapsible=1;marginBottom=0;" vertex="1" parent="1">
          <mxGeometry x="341.5" y="350" width="106" height="38" as="geometry" />
        </mxCell>
        <mxCell id="hH76QGNeZgddSlemnvMg-106" value="СпринтКузов" style="swimlane;fontStyle=0;childLayout=stackLayout;horizontal=1;startSize=26;fillColor=none;horizontalStack=0;resizeParent=1;resizeParentMax=0;resizeLast=0;collapsible=1;marginBottom=0;" vertex="1" parent="1">
          <mxGeometry x="341.5" y="404" width="106" height="38" as="geometry" />
        </mxCell>
        <mxCell id="hH76QGNeZgddSlemnvMg-107" value="Use" style="endArrow=open;endSize=12;dashed=1;html=1;rounded=0;entryX=0;entryY=0.25;entryDx=0;entryDy=0;exitX=1.005;exitY=0.297;exitDx=0;exitDy=0;exitPerimeter=0;" edge="1" parent="1">
          <mxGeometry width="160" relative="1" as="geometry">
            <mxPoint x="259.99999999999994" y="391.972" as="sourcePoint" />
            <mxPoint x="337.95" y="311.75" as="targetPoint" />
            <Array as="points">
              <mxPoint x="298.95" y="392.25" />
              <mxPoint x="298.95" y="312.25" />
            </Array>
          </mxGeometry>
        </mxCell>
        <mxCell id="hH76QGNeZgddSlemnvMg-108" value="Use" style="endArrow=open;endSize=12;dashed=1;html=1;rounded=0;entryX=0;entryY=0.5;entryDx=0;entryDy=0;exitX=0.997;exitY=0.297;exitDx=0;exitDy=0;exitPerimeter=0;" edge="1" parent="1">
          <mxGeometry width="160" relative="1" as="geometry">
            <mxPoint x="261.8700000000001" y="387.722" as="sourcePoint" />
            <mxPoint x="341.5" y="368" as="targetPoint" />
            <Array as="points">
              <mxPoint x="302.5" y="388" />
              <mxPoint x="302.5" y="368" />
            </Array>
          </mxGeometry>
        </mxCell>
        <mxCell id="hH76QGNeZgddSlemnvMg-109" value="Use" style="endArrow=open;endSize=12;dashed=1;html=1;rounded=0;entryX=0;entryY=0.5;entryDx=0;entryDy=0;exitX=1;exitY=0.5;exitDx=0;exitDy=0;" edge="1" parent="1" source="hH76QGNeZgddSlemnvMg-73">
          <mxGeometry width="160" relative="1" as="geometry">
            <mxPoint x="263.54999999999995" y="404.294" as="sourcePoint" />
            <mxPoint x="341.5" y="428" as="targetPoint" />
            <Array as="points">
              <mxPoint x="280" y="360" />
              <mxPoint x="300" y="370" />
              <mxPoint x="302.5" y="428" />
            </Array>
          </mxGeometry>
        </mxCell>
        <mxCell id="hH76QGNeZgddSlemnvMg-110" value="АбстрактноеКолесо" style="swimlane;fontStyle=0;childLayout=stackLayout;horizontal=1;startSize=26;fillColor=none;horizontalStack=0;resizeParent=1;resizeParentMax=0;resizeLast=0;collapsible=1;marginBottom=0;" vertex="1" parent="1">
          <mxGeometry x="570" y="98" width="140" height="52" as="geometry" />
        </mxCell>
        <mxCell id="hH76QGNeZgddSlemnvMg-111" value="АбстрактныйКузов" style="swimlane;fontStyle=0;childLayout=stackLayout;horizontal=1;startSize=26;fillColor=none;horizontalStack=0;resizeParent=1;resizeParentMax=0;resizeLast=0;collapsible=1;marginBottom=0;" vertex="1" parent="1">
          <mxGeometry x="570" y="164" width="140" height="52" as="geometry" />
        </mxCell>
        <mxCell id="hH76QGNeZgddSlemnvMg-112" value="dispatch" style="html=1;verticalAlign=bottom;endArrow=block;rounded=0;exitX=1.012;exitY=0.35;exitDx=0;exitDy=0;exitPerimeter=0;" edge="1" parent="1" source="hH76QGNeZgddSlemnvMg-81">
          <mxGeometry width="80" relative="1" as="geometry">
            <mxPoint x="490" y="53.71000000000001" as="sourcePoint" />
            <mxPoint x="570" y="53.71000000000001" as="targetPoint" />
            <Array as="points">
              <mxPoint x="500" y="214" />
              <mxPoint x="500" y="54" />
            </Array>
          </mxGeometry>
        </mxCell>
        <mxCell id="hH76QGNeZgddSlemnvMg-114" value="dispatch" style="html=1;verticalAlign=bottom;endArrow=block;rounded=0;exitX=1;exitY=0.5;exitDx=0;exitDy=0;" edge="1" parent="1" source="hH76QGNeZgddSlemnvMg-85">
          <mxGeometry width="80" relative="1" as="geometry">
            <mxPoint x="445" y="240" as="sourcePoint" />
            <mxPoint x="570" y="130" as="targetPoint" />
            <Array as="points">
              <mxPoint x="500" y="264" />
              <mxPoint x="500" y="130" />
            </Array>
          </mxGeometry>
        </mxCell>
        <mxCell id="hH76QGNeZgddSlemnvMg-115" value="dispatch" style="html=1;verticalAlign=bottom;endArrow=block;rounded=0;exitX=1;exitY=0.5;exitDx=0;exitDy=0;entryX=0;entryY=0.5;entryDx=0;entryDy=0;" edge="1" parent="1" source="hH76QGNeZgddSlemnvMg-89" target="hH76QGNeZgddSlemnvMg-111">
          <mxGeometry width="80" relative="1" as="geometry">
            <mxPoint x="465" y="189" as="sourcePoint" />
            <mxPoint x="590" y="73.71000000000004" as="targetPoint" />
            <Array as="points">
              <mxPoint x="500" y="170" />
              <mxPoint x="500" y="190" />
            </Array>
          </mxGeometry>
        </mxCell>
        <mxCell id="hH76QGNeZgddSlemnvMg-116" value="dispatch" style="html=1;verticalAlign=bottom;endArrow=block;rounded=0;exitX=1;exitY=0.5;exitDx=0;exitDy=0;" edge="1" parent="1" source="hH76QGNeZgddSlemnvMg-104">
          <mxGeometry width="80" relative="1" as="geometry">
            <mxPoint x="475" y="199" as="sourcePoint" />
            <mxPoint x="570" y="190" as="targetPoint" />
            <Array as="points">
              <mxPoint x="500" y="320" />
              <mxPoint x="500" y="190" />
            </Array>
          </mxGeometry>
        </mxCell>
        <mxCell id="hH76QGNeZgddSlemnvMg-117" value="dispatch" style="html=1;verticalAlign=bottom;endArrow=block;rounded=0;exitX=1;exitY=0.5;exitDx=0;exitDy=0;entryX=0;entryY=0.5;entryDx=0;entryDy=0;" edge="1" parent="1" source="hH76QGNeZgddSlemnvMg-105" target="hH76QGNeZgddSlemnvMg-96">
          <mxGeometry width="80" relative="1" as="geometry">
            <mxPoint x="485" y="209" as="sourcePoint" />
            <mxPoint x="570" y="60" as="targetPoint" />
            <Array as="points">
              <mxPoint x="500" y="370" />
              <mxPoint x="500" y="54" />
            </Array>
          </mxGeometry>
        </mxCell>
        <mxCell id="hH76QGNeZgddSlemnvMg-118" value="dispatch" style="html=1;verticalAlign=bottom;endArrow=block;rounded=0;exitX=1.005;exitY=0.398;exitDx=0;exitDy=0;exitPerimeter=0;" edge="1" parent="1" source="hH76QGNeZgddSlemnvMg-106">
          <mxGeometry width="80" relative="1" as="geometry">
            <mxPoint x="495" y="219" as="sourcePoint" />
            <mxPoint x="570" y="130" as="targetPoint" />
            <Array as="points">
              <mxPoint x="500" y="419" />
              <mxPoint x="500" y="130" />
            </Array>
          </mxGeometry>
        </mxCell>
        <mxCell id="hH76QGNeZgddSlemnvMg-119" value="AbstractFactory" style="swimlane;fontStyle=0;childLayout=stackLayout;horizontal=1;startSize=26;fillColor=none;horizontalStack=0;resizeParent=1;resizeParentMax=0;resizeLast=0;collapsible=1;marginBottom=0;" vertex="1" parent="1">
          <mxGeometry x="30" y="535" width="140" height="78" as="geometry" />
        </mxCell>
        <mxCell id="hH76QGNeZgddSlemnvMg-120" value="+CreateProductA()" style="text;strokeColor=none;fillColor=none;align=left;verticalAlign=top;spacingLeft=4;spacingRight=4;overflow=hidden;rotatable=0;points=[[0,0.5],[1,0.5]];portConstraint=eastwest;" vertex="1" parent="hH76QGNeZgddSlemnvMg-119">
          <mxGeometry y="26" width="140" height="26" as="geometry" />
        </mxCell>
        <mxCell id="hH76QGNeZgddSlemnvMg-122" value="+CreateProductB()" style="text;strokeColor=none;fillColor=none;align=left;verticalAlign=top;spacingLeft=4;spacingRight=4;overflow=hidden;rotatable=0;points=[[0,0.5],[1,0.5]];portConstraint=eastwest;" vertex="1" parent="hH76QGNeZgddSlemnvMg-119">
          <mxGeometry y="52" width="140" height="26" as="geometry" />
        </mxCell>
        <mxCell id="hH76QGNeZgddSlemnvMg-123" value="ConcreateFactory1" style="swimlane;fontStyle=0;childLayout=stackLayout;horizontal=1;startSize=26;fillColor=none;horizontalStack=0;resizeParent=1;resizeParentMax=0;resizeLast=0;collapsible=1;marginBottom=0;" vertex="1" parent="1">
          <mxGeometry x="-90" y="690" width="140" height="78" as="geometry" />
        </mxCell>
        <mxCell id="hH76QGNeZgddSlemnvMg-124" value="+CreateProductA()" style="text;strokeColor=none;fillColor=none;align=left;verticalAlign=top;spacingLeft=4;spacingRight=4;overflow=hidden;rotatable=0;points=[[0,0.5],[1,0.5]];portConstraint=eastwest;" vertex="1" parent="hH76QGNeZgddSlemnvMg-123">
          <mxGeometry y="26" width="140" height="26" as="geometry" />
        </mxCell>
        <mxCell id="hH76QGNeZgddSlemnvMg-125" value="+CreateProductB()" style="text;strokeColor=none;fillColor=none;align=left;verticalAlign=top;spacingLeft=4;spacingRight=4;overflow=hidden;rotatable=0;points=[[0,0.5],[1,0.5]];portConstraint=eastwest;" vertex="1" parent="hH76QGNeZgddSlemnvMg-123">
          <mxGeometry y="52" width="140" height="26" as="geometry" />
        </mxCell>
        <mxCell id="hH76QGNeZgddSlemnvMg-126" value="ConcreateFactory2" style="swimlane;fontStyle=0;childLayout=stackLayout;horizontal=1;startSize=26;fillColor=none;horizontalStack=0;resizeParent=1;resizeParentMax=0;resizeLast=0;collapsible=1;marginBottom=0;" vertex="1" parent="1">
          <mxGeometry x="110" y="690" width="140" height="78" as="geometry" />
        </mxCell>
        <mxCell id="hH76QGNeZgddSlemnvMg-127" value="+CreateProductA()" style="text;strokeColor=none;fillColor=none;align=left;verticalAlign=top;spacingLeft=4;spacingRight=4;overflow=hidden;rotatable=0;points=[[0,0.5],[1,0.5]];portConstraint=eastwest;" vertex="1" parent="hH76QGNeZgddSlemnvMg-126">
          <mxGeometry y="26" width="140" height="26" as="geometry" />
        </mxCell>
        <mxCell id="hH76QGNeZgddSlemnvMg-128" value="+CreateProductB()" style="text;strokeColor=none;fillColor=none;align=left;verticalAlign=top;spacingLeft=4;spacingRight=4;overflow=hidden;rotatable=0;points=[[0,0.5],[1,0.5]];portConstraint=eastwest;" vertex="1" parent="hH76QGNeZgddSlemnvMg-126">
          <mxGeometry y="52" width="140" height="26" as="geometry" />
        </mxCell>
        <mxCell id="hH76QGNeZgddSlemnvMg-129" value="Client" style="html=1;" vertex="1" parent="1">
          <mxGeometry x="570" y="535" width="110" height="50" as="geometry" />
        </mxCell>
        <mxCell id="hH76QGNeZgddSlemnvMg-130" value="AbstractProductA" style="html=1;fontStyle=0" vertex="1" parent="1">
          <mxGeometry x="460" y="610" width="110" height="50" as="geometry" />
        </mxCell>
        <mxCell id="hH76QGNeZgddSlemnvMg-131" value="ProductA2" style="html=1;fontStyle=0" vertex="1" parent="1">
          <mxGeometry x="350" y="704" width="110" height="50" as="geometry" />
        </mxCell>
        <mxCell id="hH76QGNeZgddSlemnvMg-132" value="ProductA1" style="html=1;fontStyle=0" vertex="1" parent="1">
          <mxGeometry x="570" y="704" width="110" height="50" as="geometry" />
        </mxCell>
        <mxCell id="hH76QGNeZgddSlemnvMg-133" value="AbstractProductB" style="html=1;fontStyle=0" vertex="1" parent="1">
          <mxGeometry x="460" y="788" width="110" height="50" as="geometry" />
        </mxCell>
        <mxCell id="hH76QGNeZgddSlemnvMg-134" value="ProductB2" style="html=1;fontStyle=0" vertex="1" parent="1">
          <mxGeometry x="350" y="880" width="110" height="50" as="geometry" />
        </mxCell>
        <mxCell id="hH76QGNeZgddSlemnvMg-135" value="ProductB1" style="html=1;fontStyle=0" vertex="1" parent="1">
          <mxGeometry x="590" y="880" width="110" height="50" as="geometry" />
        </mxCell>
        <mxCell id="hH76QGNeZgddSlemnvMg-136" value="Use" style="endArrow=open;endSize=12;dashed=1;html=1;rounded=0;" edge="1" parent="1">
          <mxGeometry width="160" relative="1" as="geometry">
            <mxPoint x="250" y="728.71" as="sourcePoint" />
            <mxPoint x="350" y="730" as="targetPoint" />
          </mxGeometry>
        </mxCell>
        <mxCell id="hH76QGNeZgddSlemnvMg-137" value="Use" style="endArrow=open;endSize=12;dashed=1;html=1;rounded=0;exitX=1;exitY=0.5;exitDx=0;exitDy=0;entryX=0;entryY=0.5;entryDx=0;entryDy=0;" edge="1" parent="1" source="hH76QGNeZgddSlemnvMg-127" target="hH76QGNeZgddSlemnvMg-134">
          <mxGeometry width="160" relative="1" as="geometry">
            <mxPoint x="260" y="738.7100000000003" as="sourcePoint" />
            <mxPoint x="360" y="740" as="targetPoint" />
            <Array as="points">
              <mxPoint x="300" y="729" />
              <mxPoint x="300" y="905" />
            </Array>
          </mxGeometry>
        </mxCell>
        <mxCell id="hH76QGNeZgddSlemnvMg-138" value="Use" style="endArrow=open;endSize=12;dashed=1;html=1;rounded=0;exitX=0.435;exitY=1.033;exitDx=0;exitDy=0;exitPerimeter=0;entryX=1;entryY=0.5;entryDx=0;entryDy=0;" edge="1" parent="1" source="hH76QGNeZgddSlemnvMg-125" target="hH76QGNeZgddSlemnvMg-132">
          <mxGeometry width="160" relative="1" as="geometry">
            <mxPoint x="270" y="748.7100000000003" as="sourcePoint" />
            <mxPoint x="370" y="750" as="targetPoint" />
            <Array as="points">
              <mxPoint x="-30" y="960" />
              <mxPoint x="740" y="960" />
              <mxPoint x="740" y="730" />
            </Array>
          </mxGeometry>
        </mxCell>
        <mxCell id="hH76QGNeZgddSlemnvMg-139" value="Use" style="endArrow=open;endSize=12;dashed=1;html=1;rounded=0;exitX=0.436;exitY=1.077;exitDx=0;exitDy=0;exitPerimeter=0;entryX=1;entryY=0.5;entryDx=0;entryDy=0;" edge="1" parent="1" source="hH76QGNeZgddSlemnvMg-125" target="hH76QGNeZgddSlemnvMg-135">
          <mxGeometry width="160" relative="1" as="geometry">
            <mxPoint x="280" y="758.7100000000003" as="sourcePoint" />
            <mxPoint x="380" y="760" as="targetPoint" />
            <Array as="points">
              <mxPoint x="-29" y="960" />
              <mxPoint x="740" y="960" />
              <mxPoint x="740" y="905" />
            </Array>
          </mxGeometry>
        </mxCell>
        <mxCell id="hH76QGNeZgddSlemnvMg-140" value="" style="endArrow=open;endFill=1;endSize=12;html=1;rounded=0;exitX=0;exitY=0.5;exitDx=0;exitDy=0;entryX=1;entryY=0.342;entryDx=0;entryDy=0;entryPerimeter=0;" edge="1" parent="1" source="hH76QGNeZgddSlemnvMg-129" target="hH76QGNeZgddSlemnvMg-119">
          <mxGeometry width="160" relative="1" as="geometry">
            <mxPoint x="210" y="840" as="sourcePoint" />
            <mxPoint x="370" y="840" as="targetPoint" />
          </mxGeometry>
        </mxCell>
        <mxCell id="hH76QGNeZgddSlemnvMg-141" value="" style="endArrow=open;endFill=1;endSize=12;html=1;rounded=0;" edge="1" parent="1">
          <mxGeometry width="160" relative="1" as="geometry">
            <mxPoint x="620" y="620" as="sourcePoint" />
            <mxPoint x="570" y="640" as="targetPoint" />
            <Array as="points">
              <mxPoint x="620" y="640" />
            </Array>
          </mxGeometry>
        </mxCell>
        <mxCell id="hH76QGNeZgddSlemnvMg-142" value="" style="endArrow=open;endFill=1;endSize=12;html=1;rounded=0;entryX=1;entryY=0.5;entryDx=0;entryDy=0;exitX=0.451;exitY=0.988;exitDx=0;exitDy=0;exitPerimeter=0;" edge="1" parent="1" source="hH76QGNeZgddSlemnvMg-129" target="hH76QGNeZgddSlemnvMg-133">
          <mxGeometry width="160" relative="1" as="geometry">
            <mxPoint x="620" y="610" as="sourcePoint" />
            <mxPoint x="190" y="599.5" as="targetPoint" />
            <Array as="points">
              <mxPoint x="620" y="640" />
              <mxPoint x="710" y="640" />
              <mxPoint x="710" y="815" />
            </Array>
          </mxGeometry>
        </mxCell>
        <mxCell id="hH76QGNeZgddSlemnvMg-143" value="dispatch" style="html=1;verticalAlign=bottom;endArrow=block;rounded=0;exitX=0.5;exitY=0;exitDx=0;exitDy=0;entryX=0.457;entryY=1.115;entryDx=0;entryDy=0;entryPerimeter=0;" edge="1" parent="1">
          <mxGeometry x="0.9044" y="-29" width="80" relative="1" as="geometry">
            <mxPoint x="-17" y="690" as="sourcePoint" />
            <mxPoint x="96.98000000000002" y="640.99" as="targetPoint" />
            <Array as="points">
              <mxPoint x="-17" y="670" />
              <mxPoint x="97" y="670" />
            </Array>
            <mxPoint as="offset" />
          </mxGeometry>
        </mxCell>
        <mxCell id="hH76QGNeZgddSlemnvMg-144" value="dispatch" style="html=1;verticalAlign=bottom;endArrow=block;rounded=0;exitX=0.5;exitY=0;exitDx=0;exitDy=0;entryX=0.479;entryY=1.077;entryDx=0;entryDy=0;entryPerimeter=0;" edge="1" parent="1" source="hH76QGNeZgddSlemnvMg-126" target="hH76QGNeZgddSlemnvMg-122">
          <mxGeometry width="80" relative="1" as="geometry">
            <mxPoint x="-10" y="700" as="sourcePoint" />
            <mxPoint x="103.98000000000002" y="650.99" as="targetPoint" />
            <Array as="points">
              <mxPoint x="180" y="670" />
              <mxPoint x="97" y="670" />
            </Array>
          </mxGeometry>
        </mxCell>
        <mxCell id="hH76QGNeZgddSlemnvMg-145" value="dispatch" style="html=1;verticalAlign=bottom;endArrow=block;rounded=0;exitX=0.5;exitY=0;exitDx=0;exitDy=0;entryX=0.5;entryY=1;entryDx=0;entryDy=0;" edge="1" parent="1" source="hH76QGNeZgddSlemnvMg-131" target="hH76QGNeZgddSlemnvMg-130">
          <mxGeometry width="80" relative="1" as="geometry">
            <mxPoint y="710" as="sourcePoint" />
            <mxPoint x="113.98000000000002" y="660.99" as="targetPoint" />
            <Array as="points">
              <mxPoint x="405" y="690" />
              <mxPoint x="515" y="690" />
            </Array>
          </mxGeometry>
        </mxCell>
        <mxCell id="hH76QGNeZgddSlemnvMg-146" value="dispatch" style="html=1;verticalAlign=bottom;endArrow=block;rounded=0;exitX=0.5;exitY=0;exitDx=0;exitDy=0;entryX=0.5;entryY=1;entryDx=0;entryDy=0;" edge="1" parent="1" source="hH76QGNeZgddSlemnvMg-132" target="hH76QGNeZgddSlemnvMg-130">
          <mxGeometry width="80" relative="1" as="geometry">
            <mxPoint x="10" y="720" as="sourcePoint" />
            <mxPoint x="123.98000000000002" y="670.99" as="targetPoint" />
            <Array as="points">
              <mxPoint x="625" y="690" />
              <mxPoint x="515" y="690" />
            </Array>
          </mxGeometry>
        </mxCell>
        <mxCell id="hH76QGNeZgddSlemnvMg-147" value="dispatch" style="html=1;verticalAlign=bottom;endArrow=block;rounded=0;exitX=0.5;exitY=0;exitDx=0;exitDy=0;" edge="1" parent="1">
          <mxGeometry width="80" relative="1" as="geometry">
            <mxPoint x="630" y="880" as="sourcePoint" />
            <mxPoint x="520" y="840" as="targetPoint" />
            <Array as="points">
              <mxPoint x="630" y="866" />
              <mxPoint x="520" y="866" />
            </Array>
          </mxGeometry>
        </mxCell>
        <mxCell id="hH76QGNeZgddSlemnvMg-148" value="dispatch" style="html=1;verticalAlign=bottom;endArrow=block;rounded=0;exitX=0.5;exitY=0;exitDx=0;exitDy=0;" edge="1" parent="1">
          <mxGeometry width="80" relative="1" as="geometry">
            <mxPoint x="410" y="880" as="sourcePoint" />
            <mxPoint x="520" y="840" as="targetPoint" />
            <Array as="points">
              <mxPoint x="410" y="866" />
              <mxPoint x="520" y="866" />
            </Array>
          </mxGeometry>
        </mxCell>
      </root>
    </mxGraphModel>
  </diagram>
</mxfile>
